<?xml version="1.0" standalone="no"?>
<!DOCTYPE svg PUBLIC "-//W3C//DTD SVG 20010904//EN"
 "http://www.w3.org/TR/2001/REC-SVG-20010904/DTD/svg10.dtd">
<svg version="1.0" xmlns="http://www.w3.org/2000/svg"
 width="1920.000000pt" height="1920.000000pt" viewBox="0 0 1920.000000 1920.000000"
 preserveAspectRatio="xMidYMid meet">

<g transform="translate(0.000000,1920.000000) scale(0.100000,-0.100000)"
fill="#000000" stroke="none">
<path d="M3240 12151 l0 -2721 198 -232 c373 -439 672 -791 1501 -1768 310
-366 601 -708 646 -760 45 -52 324 -381 620 -730 297 -349 727 -857 958 -1127
l418 -493 2090 0 c1651 0 2089 3 2083 12 -5 7 -224 280 -489 608 -1350 1670
-2927 3622 -3224 3990 -184 228 -666 825 -1071 1325 -404 501 -913 1130 -1130
1399 -217 269 -455 563 -529 655 -74 91 -560 693 -1080 1336 -519 644 -955
1183 -968 1198 l-23 29 0 -2721z"/>
<path d="M13174 11297 l-2782 -3432 97 -7 c85 -7 865 -25 3141 -73 382 -8 750
-17 817 -20 l121 -4 696 881 696 881 0 2604 c0 1432 -1 2603 -2 2602 -2 0
-1255 -1545 -2784 -3432z"/>
</g>
</svg>
